<?xml version="1.0" encoding="iso-8859-1"?>
<!-- Generator: Adobe Illustrator 16.0.0, SVG Export Plug-In . SVG Version: 6.00 Build 0)  -->
<!DOCTYPE svg PUBLIC "-//W3C//DTD SVG 1.1//EN" "http://www.w3.org/Graphics/SVG/1.1/DTD/svg11.dtd">
<svg enable-background="new 0 0 512.5 512.5" version="1.1" viewBox="0 0 512.5 512.5" xml:space="preserve" xmlns="http://www.w3.org/2000/svg"><path d="m112.5 208.25c61.856 0 112 50.145 112 112s-50.144 112-112 112-112-50.145-112-112l-0.5-16c0-123.71 100.29-224 224-224v64c-42.737 0-82.917 16.643-113.14 46.863-5.817 5.818-11.126 12.008-15.915 18.51 5.719-0.9 11.58-1.373 17.552-1.373zm288 0c61.855 0 112 50.145 112 112s-50.145 112-112 112-112-50.145-112-112l-0.5-16c0-123.71 100.29-224 224-224v64c-42.736 0-82.918 16.643-113.14 46.863-5.818 5.818-11.127 12.008-15.916 18.51 5.719-0.9 11.58-1.373 17.553-1.373z"/></svg>
