<?xml version="1.0" encoding="utf-8"?>
<!-- Generator: Adobe Illustrator 27.5.0, SVG Export Plug-In . SVG Version: 6.00 Build 0)  -->
<svg version="1.1" id="Layer_1" xmlns="http://www.w3.org/2000/svg" xmlns:xlink="http://www.w3.org/1999/xlink" x="0px" y="0px"
	 viewBox="0 0 1024 1024" style="enable-background:new 0 0 1024 1024;" xml:space="preserve">
<g id="artwork_1_">
	<path d="M505.45,62.916c1.76-6.709,4.394-13.815,10.214-18.049c13.751,72.197,38.842,146.327,93.686,197.952
		c-6.821,7.105-14.036,14.116-22.996,18.493c24.486,39.888,57.65,74.115,96.255,100.507c-22.568,9.232-46.946,13.799-71.309,14.353
		c29.882,38.207,68.866,67.931,108.643,95.114c-24.377,10.357-51.26,14.449-77.635,14.655
		c33.369,41.396,77.461,72.037,121.664,100.713c-18.478,8.217-38.652,11.117-58.558,13.514c7.376,5.013,18.67,7.66,22.888,15.178
		c-7.819,5.266-19.682,4.092-29.184,5.154c30.166,28.248,64.583,52.069,92.879,82.157c-30.817,9.58-63.854,13.164-96.193,13.228
		c41.032,48.072,98.572,78.587,157.049,100.237c-30.658,9.293-61.998,16.161-93.401,22.411
		c12.039,11.275,27.693,17.636,40.983,27.247c-87.755,4.06-180.157-14.099-251.307-67.945c0.508,32.308-8.058,72.798,18.636,97.239
		c12.134,13.308,29.771,0.015,44.79,3.014c47.169-3.332,89.879,20.095,135.779,25.885c9.31,1.015,19.335,3.424,24.918,11.688
		c-40.398,0.08-80.745-2.568-121.141-3.219c-18.78-3.458-36.925-21.508-56.734-13.102c27.581,4.203,55.179,19.556,73.069,40.841
		c-49.628-11.879-94.036-43.774-145.248-51.182c32.767,9.659,62.552,28.12,88.196,50.357c6.235,7.549-6.834,6.819-10.911,4.25
		c-34.305-15.368-68.88-32.926-107.009-35.94c-48.421-5.502-90.991,22.888-135.89,33.784c18.682-21.491,45.438-37.289,73.257-43.727
		c-24.472-6.582-43.234,18.064-67.31,15.115c-37.937,0.047-75.796,3.427-113.718,2.729c13.369-15.195,36.336-10.627,54.053-16.463
		c42.044-11.515,85.043-26.933,129.309-19.097c15.004,4.68,24.647-12.102,29.485-23.711c8.754-24.551,6.422-51.229,5.233-76.765
		c-66.804,56.575-158.065,71.594-243.155,66.503c12.069-9.184,25.963-16.051,36.716-26.915c-22.567-7.327-45.852-12.45-68.12-20.65
		c35.513-11.197,70.88-25.122,101.11-47.279c-41.41,0.301-83.361-2.538-123.297-14.053c57.715-17.033,112.386-46.424,156.414-87.707
		c-33.053-0.825-66.058-5.806-97.714-15.464c32.814-23.076,68.293-42.744,98.365-69.579c-10.055-0.396-24.566,4.995-31.625-3.521
		c7.438-6.994,17.16-10.69,25.186-16.828c-22.41-5.043-44.568-12.45-64.519-23.949c48.039-20.729,94.955-46.472,131.561-84.52
		c-21.031-5.075-41.174-13.91-58.602-26.773c35.066-13.972,66.628-36.145,92.433-63.647c-21.396-4.9-41.522-14.511-59.316-27.294
		c30.228-23.902,57.174-52.117,77.729-84.837c-11.609-4.521-22.585-11.007-31.783-19.445
		C456.934,187.307,487.988,126.468,505.45,62.916 M510.589,94.619c-13.894,51.436-38.683,100.666-75.813,139.254
		c31.482-1.411,60.348-22.965,74.178-50.625c-12.418,10.832-26.708,20.111-42.965,23.823c20.031-23.681,34.987-51.262,45.868-80.223
		c5.441,15.321,12.766,29.833,19.238,44.694c-5.836-2.458-11.15-5.963-16.954-8.485c7.739,21.157,23.758,40.506,45.661,47.66
		C535.773,175.73,520.39,135.731,510.589,94.619 M517.726,215.92c-1.903,2.094-3.902,4.124-5.44,6.503
		c10.69,16.225,26.36,28.264,42.521,38.541c11.609,18.287,24.441,35.86,39.048,51.912c-32.909-7.423-62.679-25.79-88.182-47.407
		c-1.747-0.016-3.459,0.301-5.109,0.919c26.662,45.599,80.08,70.435,130.657,78.636c-29.689-25.139-53.924-57.271-69.181-92.878
		C545.434,242.549,530.032,230.717,517.726,215.92 M549.035,221.629c9.451,9.58,20.966,19.445,34.702,21.443
		C575.584,230.242,563.626,224.231,549.035,221.629 M459.423,268.845c-15.146,27.169-36.844,49.818-59.937,70.373
		c37.224-1.888,75.369-14.448,101.952-41.476c-1.763-3.457-4.666-6.392-7.647-8.834c-18.572,15.1-40.396,26.36-64.091,30.674
		c12.449-12.53,22.87-26.772,32.655-41.411c16.369-11.546,33.578-24.139,42.459-42.728
		C490.905,248.148,475.616,259.202,459.423,268.845 M431.064,345.07c15.749,8.216,34.479-0.365,45.646-12.355
		C461.944,338.408,447.082,344.167,431.064,345.07 M526.005,334.317c13.131,19.35,32.879,34.052,54.924,41.712
		c7.709,8.454,12.021,20.588,22.934,25.837c-7.026-10.848-14.036-21.841-21.015-32.672
		C562.658,359.694,543.641,347.988,526.005,334.317 M450.525,367.909c-9.835,11.625-20.254,22.903-32.355,32.244
		c36.035-3.711,66.883-26.551,90.214-53.005c-1.889-2.474-3.965-4.79-6.33-6.789C487.29,353.492,469.653,362.993,450.525,367.909
		 M519.137,384.118c36.893,38.939,87.597,66.868,141.57,71.086c-12.673-10.088-25.615-19.92-37.765-30.643
		c-34.987-7.438-69.609-21.775-96.589-45.709C523.894,380.534,521.5,382.31,519.137,384.118 M423.103,454.586
		c-26.582,34.385-61.633,61.602-100.332,81.236c55.829,2.331,113.925-16.035,156.192-52.99
		c-31.673,17.828-66.867,31.499-103.695,31.626c18.636-12.657,34.941-28.375,50.738-44.267c33.592-8.517,63.266-33.116,77.684-64.63
		C480.914,427.766,453.428,444.911,423.103,454.586 M395.22,421.707c-9.453-3.029-16.701,5.869-25.234,8.438
		c32.054,16.844,72.291,2.951,96.273-21.617C444.087,418.344,419.567,424.721,395.22,421.707 M521.47,434.332
		c7.739,37.192,48.833,53.894,82.044,61.76c16.098,16.939,32.514,33.67,50.88,48.215c-47.787-3.759-92.085-25.599-130.849-52.656
		c45.98,50.514,114.449,80.458,182.173,85.565c-33.594-24.267-66.25-50.735-91.848-83.663c-2.476-3.235-4.855-7.041-9.008-8.215
		C573.682,474.903,545.449,456.648,521.47,434.332 M398.171,547.1c-27.17,38.238-64.157,68.009-103.728,92.623
		c82.157-1.743,171.261-30.308,223.043-97.414c-1.126-0.015-3.378-0.063-4.486-0.095c-48.137,36.573-104.918,61.459-164.107,73.465
		c21.41-17.271,41.062-36.892,57.208-59.159c23.012-14.56,46.691-29.786,63.426-51.72C447.45,521.579,423.817,536.394,398.171,547.1
		 M551.81,532.682c19.206,22.982,44.933,39.048,70.245,54.369c13.623,18.826,28.484,36.748,44.123,53.958
		c-46.55-11.245-89.642-34.607-128.056-62.823c-4.045,4.059-8.359,7.851-13.053,11.134c53.576,55.161,129.435,88.755,206.295,91.086
		c-37.081-28.914-74.973-59.001-99.651-99.809C603.356,567.67,576.964,551.001,551.81,532.682 M325.403,707.875
		c18.936-15.385,38.825-30.118,53.925-49.563c6.153-9.247,18.714-9.66,26.17-17.494c-7.566,1.443-15.004,3.457-22.538,5.043
		c-31.038,42.965-78.651,69.088-123.362,95.383c67.312-2.615,134.052-23.361,191.26-58.89c25.536-16.335,49.658-36.905,63.71-64.233
		C462.595,666.194,394.856,696.123,325.403,707.875 M521.247,651.888c32.608,37.335,79.158,60.556,126.024,74.83
		c27.82,3.203,42.254,30.847,65.757,43.456c-63.313-8.185-124.851-31.895-176.936-68.93c6.963,10.39,17.034,18.099,26.55,26.013
		c60.109,46.232,135.083,73.623,210.831,76.923c-36.24-20.017-71.213-43.632-99.303-74.354c-4.758-4.297-6.549-12.608-13.749-13.354
		C610.286,704.687,562.943,681.976,521.247,651.888 M313.556,795.122c23.187-15.29,45.599-32.988,61.267-56.257
		c-9.738,2.824-19.476,5.551-29.358,7.787c5.346,4.315,12.8,0.778,18.891,0.255c-30.342,31.483-69.452,52.735-109.452,69.437
		c90.293,2.077,189.071-29.199,245.613-103.013C446.783,756.281,381.151,783.56,313.556,795.122 M547.288,765.987
		c47.247,50.277,117.86,73.654,185.393,78.224c-8.201-4.79-15.735-10.85-23.87-15.481
		C649.921,825.971,593.411,802.117,547.288,765.987 M488.289,793.964c-2.078,37.241-0.763,77.018-18.716,110.88
		c2.142-0.221,4.298-0.411,6.47-0.603C494.111,871.077,493.808,830.38,488.289,793.964 M531.666,893.233
		c0.857,5.155,5.186,8.2,10.262,8.438c-13.861-34.052-12.165-71.625-13.972-107.659
		C522.658,826.717,522.134,861.197,531.666,893.233 M316.014,833.172c-7.708,4.202-15.226,9.23-22.887,13.688
		c45.567-1.459,92.72-14.592,129.469-42.157C389.32,820.911,353.11,831.459,316.014,833.172 M488.193,903.019
		c8.311-0.539,8.645-10.056,10.325-16.258c4.173-25.295,4.394-51.18,2.301-76.698C498.995,841.309,496.329,872.68,488.193,903.019z"
		/>
	<path d="M434.283,951.108c43.887-14.195,98.034-18.413,137.066,9.945c-12.989,5.836-29.944,0.063-44.234,4.741
		c-12.973-5.059-25.313-13.005-39.269-14.987c-14.94,4.06-30.468,8.31-43.489,16.859c14.607-4.87,29.009-10.943,44.186-13.735
		c15.544,4.979,30.657,11.626,44.742,19.842c-34.194,0.38-68.389,0.317-102.585,0.254c-0.237-2.253-0.49-4.474-0.714-6.677
		c-14.338-2.538-25.201,9.53-38.477,11.783C401.185,964.336,418.345,957.089,434.283,951.108z"/>
</g>
</svg>
